<?xml version="1.0" encoding="UTF-8" standalone="no"?>
<!-- Created with Inkscape (http://www.inkscape.org/) -->

<svg
   xmlns:dc="http://purl.org/dc/elements/1.1/"
   xmlns:cc="http://creativecommons.org/ns#"
   xmlns:rdf="http://www.w3.org/1999/02/22-rdf-syntax-ns#"
   xmlns:svg="http://www.w3.org/2000/svg"
   xmlns="http://www.w3.org/2000/svg"
   xmlns:xlink="http://www.w3.org/1999/xlink"
   xmlns:sodipodi="http://sodipodi.sourceforge.net/DTD/sodipodi-0.dtd"
   xmlns:inkscape="http://www.inkscape.org/namespaces/inkscape"
   width="48.914253mm"
   height="37.953239mm"
   viewBox="0 0 173.31822 134.47998"
   id="svg2"
   version="1.1"
   inkscape:version="0.91 r13725"
   sodipodi:docname="Yahoo logo.svg">
  <defs
     id="defs4">
    <linearGradient
       id="linearGradient4000"
       inkscape:collect="always">
      <stop
         id="stop4002"
         offset="0"
         style="stop-color:#ffffff;stop-opacity:0" />
      <stop
         id="stop4004"
         offset="1"
         style="stop-color:#000000;stop-opacity:1" />
    </linearGradient>
    <linearGradient
       id="linearGradient3189"
       inkscape:collect="always">
      <stop
         id="stop3191"
         offset="0"
         style="stop-color:#feccfe;stop-opacity:1;" />
      <stop
         id="stop3193"
         offset="1"
         style="stop-color:#feccfe;stop-opacity:0;" />
    </linearGradient>
    <linearGradient
       id="linearGradient4398"
       inkscape:collect="always">
      <stop
         id="stop4400"
         offset="0"
         style="stop-color:#790092;stop-opacity:1;" />
      <stop
         id="stop4402"
         offset="1"
         style="stop-color:#790092;stop-opacity:0;" />
    </linearGradient>
    <linearGradient
       id="linearGradient4388"
       inkscape:collect="always">
      <stop
         id="stop4390"
         offset="0"
         style="stop-color:#ffffff;stop-opacity:1;" />
      <stop
         id="stop4392"
         offset="1"
         style="stop-color:#ffffff;stop-opacity:0;" />
    </linearGradient>
    <linearGradient
       id="linearGradient3841"
       inkscape:collect="always">
      <stop
         id="stop3843"
         offset="0"
         style="stop-color:#000075;stop-opacity:1;" />
      <stop
         id="stop3845"
         offset="1"
         style="stop-color:#000075;stop-opacity:0;" />
    </linearGradient>
    <linearGradient
       id="linearGradient3057"
       inkscape:collect="always">
      <stop
         id="stop3059"
         offset="0"
         style="stop-color:#000000;stop-opacity:1;" />
      <stop
         id="stop3061"
         offset="1"
         style="stop-color:#000000;stop-opacity:0;" />
    </linearGradient>
    <linearGradient
       id="linearGradient3769"
       inkscape:collect="always">
      <stop
         id="stop3771"
         offset="0"
         style="stop-color:#340041;stop-opacity:1;" />
      <stop
         id="stop3773"
         offset="1"
         style="stop-color:#340041;stop-opacity:0;" />
    </linearGradient>
    <linearGradient
       gradientUnits="userSpaceOnUse"
       y2="61.001148"
       x2="40.040737"
       y1="60.204643"
       x1="10.799749"
       id="linearGradient3775"
       xlink:href="#linearGradient3769"
       inkscape:collect="always" />
    <linearGradient
       gradientUnits="userSpaceOnUse"
       y2="50.414314"
       x2="47.94302"
       y1="20.536623"
       x1="47.94302"
       id="linearGradient3796"
       xlink:href="#linearGradient4388"
       inkscape:collect="always" />
    <linearGradient
       gradientTransform="matrix(1,0,0,0.82184811,326.60575,26.503148)"
       gradientUnits="userSpaceOnUse"
       y2="103.74281"
       x2="-252.96785"
       y1="72.988159"
       x1="-255.56683"
       id="linearGradient4057"
       xlink:href="#linearGradient4388"
       inkscape:collect="always" />
    <linearGradient
       y2="120.07012"
       x2="46.58511"
       y1="123.82221"
       x1="54.548737"
       gradientTransform="matrix(0.53541667,0,0,1,21.494943,-0.07657335)"
       gradientUnits="userSpaceOnUse"
       id="linearGradient4095"
       xlink:href="#linearGradient4388"
       inkscape:collect="always" />
    <linearGradient
       y2="120.07012"
       x2="46.58511"
       y1="123.82221"
       x1="54.548737"
       gradientTransform="matrix(0.53541667,0,0,1,-107.97103,-0.07657335)"
       gradientUnits="userSpaceOnUse"
       id="linearGradient4097"
       xlink:href="#linearGradient4388"
       inkscape:collect="always" />
    <linearGradient
       gradientUnits="userSpaceOnUse"
       y2="50.81218"
       x2="213.9821"
       y1="55.116859"
       x1="214.30602"
       id="linearGradient4208"
       xlink:href="#linearGradient4388"
       inkscape:collect="always" />
    <linearGradient
       gradientUnits="userSpaceOnUse"
       y2="49.203678"
       x2="213.86867"
       y1="42.681099"
       x1="214.0519"
       id="linearGradient3063"
       xlink:href="#linearGradient3057"
       inkscape:collect="always" />
    <linearGradient
       y2="22.362099"
       x2="206.83588"
       y1="26.098139"
       x1="206.99831"
       gradientUnits="userSpaceOnUse"
       id="linearGradient3859"
       xlink:href="#linearGradient3841"
       inkscape:collect="always" />
    <linearGradient
       y2="103.74281"
       x2="-252.96785"
       y1="72.988159"
       x1="-255.56683"
       gradientTransform="matrix(1,0,0,0.82184811,326.20524,26.73633)"
       gradientUnits="userSpaceOnUse"
       id="linearGradient3945"
       xlink:href="#linearGradient4388"
       inkscape:collect="always" />
    <linearGradient
       y2="45.90728"
       x2="47.519699"
       y1="20.254934"
       x1="49.636299"
       gradientTransform="matrix(1.0232558,0,0,1.5377358,143.66971,738.31177)"
       gradientUnits="userSpaceOnUse"
       id="linearGradient4020-2"
       xlink:href="#linearGradient4388"
       inkscape:collect="always" />
    <linearGradient
       y2="61.001148"
       x2="56.011551"
       y1="60.204643"
       x1="10.799749"
       gradientUnits="userSpaceOnUse"
       id="linearGradient4245"
       xlink:href="#linearGradient3769"
       inkscape:collect="always" />
    <linearGradient
       y2="61.001148"
       x2="48.596531"
       y1="60.204643"
       x1="17.644384"
       gradientUnits="userSpaceOnUse"
       id="linearGradient4247"
       xlink:href="#linearGradient3769"
       inkscape:collect="always" />
    <linearGradient
       y2="50.414314"
       x2="47.94302"
       y1="20.536623"
       x1="47.94302"
       gradientTransform="matrix(0.87312415,0,0,-1.3121199,-133.69493,145.84088)"
       gradientUnits="userSpaceOnUse"
       id="linearGradient4249"
       xlink:href="#linearGradient4388"
       inkscape:collect="always" />
    <linearGradient
       gradientTransform="translate(4.1668999e-7,0.15314621)"
       gradientUnits="userSpaceOnUse"
       y2="42.577915"
       x2="336.41513"
       y1="1.9940553"
       x1="339.17178"
       id="linearGradient4339"
       xlink:href="#linearGradient4388"
       inkscape:collect="always" />
    <linearGradient
       gradientTransform="translate(-0.31292208,0.54120125)"
       gradientUnits="userSpaceOnUse"
       y2="66.315643"
       x2="261.83273"
       y1="55.442234"
       x1="262.21561"
       id="linearGradient4394"
       xlink:href="#linearGradient4388"
       inkscape:collect="always" />
    <linearGradient
       gradientUnits="userSpaceOnUse"
       y2="49.663139"
       x2="265.51987"
       y1="54.880714"
       x1="272.69745"
       id="linearGradient4404"
       xlink:href="#linearGradient4398"
       inkscape:collect="always" />
    <linearGradient
       y2="66.315643"
       x2="261.83273"
       y1="53.328133"
       x1="262.79752"
       gradientTransform="translate(-0.31292208,0.54120125)"
       gradientUnits="userSpaceOnUse"
       id="linearGradient4542"
       xlink:href="#linearGradient4388"
       inkscape:collect="always" />
    <radialGradient
       gradientUnits="userSpaceOnUse"
       gradientTransform="matrix(1.1470193,1.1089535,-1.2695612,1.5615345,11.831055,-29.870232)"
       r="37.867268"
       fy="11.518209"
       fx="20.492735"
       cy="11.518209"
       cx="20.492735"
       id="radialGradient3195"
       xlink:href="#linearGradient3189"
       inkscape:collect="always" />
    <radialGradient
       r="37.867268"
       fy="11.518209"
       fx="20.492735"
       cy="11.518209"
       cx="20.492735"
       gradientTransform="matrix(1.1470193,1.1089535,-1.2695612,1.5615345,11.831055,-29.870232)"
       gradientUnits="userSpaceOnUse"
       id="radialGradient3197"
       xlink:href="#linearGradient3189"
       inkscape:collect="always" />
    <filter
       height="1.2180278"
       y="-0.10901392"
       width="1.7321658"
       x="-0.36608291"
       id="filter4315-2"
       inkscape:collect="always"
       style="color-interpolation-filters:sRGB">
      <feGaussianBlur
         id="feGaussianBlur4317-4"
         stdDeviation="2.2425735"
         inkscape:collect="always" />
    </filter>
    <linearGradient
       y2="61.001148"
       x2="39.285419"
       y1="60.204643"
       x1="5.007875"
       gradientUnits="userSpaceOnUse"
       id="linearGradient3734"
       xlink:href="#linearGradient3769"
       inkscape:collect="always" />
    <filter
       height="1.7820631"
       y="-0.39103156"
       width="1.4898638"
       x="-0.24493188"
       id="filter3941-4-7-2"
       inkscape:collect="always"
       style="color-interpolation-filters:sRGB">
      <feGaussianBlur
         id="feGaussianBlur3943-8-7"
         stdDeviation="8.0455904"
         inkscape:collect="always" />
    </filter>
    <filter
       height="1.4054482"
       y="-0.20272408"
       width="1.1957196"
       x="-0.097859785"
       id="filter3843-2-2"
       inkscape:collect="always"
       style="color-interpolation-filters:sRGB">
      <feGaussianBlur
         id="feGaussianBlur3845-3-3"
         stdDeviation="2.6147895"
         inkscape:collect="always" />
    </filter>
    <linearGradient
       y2="45.90728"
       x2="47.519699"
       y1="20.254934"
       x1="49.636299"
       gradientTransform="matrix(1.0232558,0,0,1.5377358,257.0896,819.76391)"
       gradientUnits="userSpaceOnUse"
       id="linearGradient3740"
       xlink:href="#linearGradient4388"
       inkscape:collect="always" />
    <filter
       height="1.4810746"
       y="-0.24053732"
       width="1.3541977"
       x="-0.17709891"
       id="filter4187-2"
       inkscape:collect="always"
       style="color-interpolation-filters:sRGB">
      <feGaussianBlur
         id="feGaussianBlur4189-2"
         stdDeviation="1.4543486"
         inkscape:collect="always" />
    </filter>
    <linearGradient
       y2="66.315643"
       x2="261.83273"
       y1="53.328133"
       x1="262.79752"
       gradientTransform="matrix(0.99644135,0.08428895,-0.08428895,0.99644135,-143.57648,-15.714156)"
       gradientUnits="userSpaceOnUse"
       id="linearGradient4827"
       xlink:href="#linearGradient4388"
       inkscape:collect="always" />
    <linearGradient
       y2="103.74281"
       x2="-252.96785"
       y1="72.988159"
       x1="-255.56683"
       gradientTransform="matrix(1,0,0,0.82184811,346.13162,91.928081)"
       gradientUnits="userSpaceOnUse"
       id="linearGradient4970"
       xlink:href="#linearGradient4388"
       inkscape:collect="always" />
    <linearGradient
       y2="120.07012"
       x2="46.58511"
       y1="123.82221"
       x1="54.548737"
       gradientTransform="matrix(0.53541667,0,0,1,52.467007,51.795382)"
       gradientUnits="userSpaceOnUse"
       id="linearGradient4972"
       xlink:href="#linearGradient4388"
       inkscape:collect="always" />
    <linearGradient
       y2="120.07012"
       x2="46.58511"
       y1="123.82221"
       x1="54.548737"
       gradientTransform="matrix(0.53541667,0,0,1,-138.94309,51.795382)"
       gradientUnits="userSpaceOnUse"
       id="linearGradient4974"
       xlink:href="#linearGradient4388"
       inkscape:collect="always" />
    <radialGradient
       r="22.359411"
       fy="71.551537"
       fx="-112.54082"
       cy="71.551537"
       cx="-112.54082"
       gradientTransform="matrix(0.00852335,2.8504918,-7.3830612,0.02207748,624.3327,483.5434)"
       gradientUnits="userSpaceOnUse"
       id="radialGradient4982"
       xlink:href="#linearGradient4000"
       inkscape:collect="always" />
    <radialGradient
       r="22.359411"
       fy="71.551537"
       fx="-112.54082"
       cy="71.551537"
       cx="-112.54082"
       gradientTransform="matrix(0.00852335,2.8504918,-7.3830612,0.02207748,624.3327,483.5434)"
       gradientUnits="userSpaceOnUse"
       id="radialGradient5163"
       xlink:href="#linearGradient4000"
       inkscape:collect="always" />
    <filter
       height="1.33665"
       y="-0.16832501"
       width="1.3044623"
       x="-0.15223116"
       id="filter4276"
       inkscape:collect="always"
       style="color-interpolation-filters:sRGB">
      <feGaussianBlur
         id="feGaussianBlur4278"
         stdDeviation="1.2506097"
         inkscape:collect="always" />
    </filter>
    <linearGradient
       y2="66.315643"
       x2="261.83273"
       y1="53.328133"
       x1="262.79752"
       gradientTransform="matrix(0.99644135,0.08373994,-0.08428895,0.98995113,-132.57648,93.452187)"
       gradientUnits="userSpaceOnUse"
       id="linearGradient4376"
       xlink:href="#linearGradient4388"
       inkscape:collect="always" />
    <radialGradient
       r="22.359411"
       fy="71.551537"
       fx="-112.54082"
       cy="71.551537"
       cx="-112.54082"
       gradientTransform="matrix(0.00852335,2.8504918,-7.3830612,0.02207748,624.3327,485.50361)"
       gradientUnits="userSpaceOnUse"
       id="radialGradient4391"
       xlink:href="#linearGradient4000"
       inkscape:collect="always" />
    <linearGradient
       y2="103.74281"
       x2="-252.96785"
       y1="72.988159"
       x1="-255.56683"
       gradientTransform="matrix(1,0,0,0.82184811,346.13162,93.875551)"
       gradientUnits="userSpaceOnUse"
       id="linearGradient4395"
       xlink:href="#linearGradient4388"
       inkscape:collect="always" />
    <linearGradient
       y2="120.07012"
       x2="46.58511"
       y1="123.82221"
       x1="54.548737"
       gradientTransform="matrix(0.53541667,0,0,1,52.467007,53.742852)"
       gradientUnits="userSpaceOnUse"
       id="linearGradient4397"
       xlink:href="#linearGradient4388"
       inkscape:collect="always" />
    <linearGradient
       y2="120.07012"
       x2="46.58511"
       y1="123.82221"
       x1="54.548737"
       gradientTransform="matrix(0.53541667,0,0,1,-138.94309,53.742852)"
       gradientUnits="userSpaceOnUse"
       id="linearGradient4399"
       xlink:href="#linearGradient4388"
       inkscape:collect="always" />
    <linearGradient
       inkscape:collect="always"
       xlink:href="#linearGradient3769"
       id="linearGradient4525"
       gradientUnits="userSpaceOnUse"
       x1="5.007875"
       y1="60.204643"
       x2="39.285419"
       y2="61.001148" />
    <linearGradient
       inkscape:collect="always"
       xlink:href="#linearGradient3841"
       id="linearGradient4527"
       gradientUnits="userSpaceOnUse"
       x1="206.99831"
       y1="26.098139"
       x2="206.83588"
       y2="22.362099" />
  </defs>
  <sodipodi:namedview
     id="base"
     pagecolor="#ffffff"
     bordercolor="#666666"
     borderopacity="1.0"
     inkscape:pageopacity="0.0"
     inkscape:pageshadow="2"
     inkscape:zoom="0.64"
     inkscape:cx="-311.17607"
     inkscape:cy="7.038134"
     inkscape:document-units="px"
     inkscape:current-layer="layer1"
     showgrid="false"
     fit-margin-top="0"
     fit-margin-left="0"
     fit-margin-right="0"
     fit-margin-bottom="0"
     inkscape:window-width="1600"
     inkscape:window-height="838"
     inkscape:window-x="-8"
     inkscape:window-y="-8"
     inkscape:window-maximized="1" />
  <metadata
     id="metadata7">
    <rdf:RDF>
      <cc:Work
         rdf:about="">
        <dc:format>image/svg+xml</dc:format>
        <dc:type
           rdf:resource="http://purl.org/dc/dcmitype/StillImage" />
        <dc:title></dc:title>
      </cc:Work>
    </rdf:RDF>
  </metadata>
  <g
     inkscape:label="Layer 1"
     inkscape:groupmode="layer"
     id="layer1"
     transform="translate(-270.48371,-482.26504)">
    <g
       transform="matrix(0.25982083,0,0,0.25982083,339.32503,533.0689)"
       id="g3940">
      <g
         id="g5022" />
      <g
         transform="translate(0.5,1.5)"
         id="g5090">
        <g
           id="g4999"
           transform="translate(-11,-107)">
          <g
             transform="matrix(1,0,0,1.0065561,-106.59007,13.363072)"
             id="g4953">
            <g
               id="g4921"
               transform="translate(106.59007,-14.089491)">
              <g
                 transform="matrix(5.0501512,0,0,5.0501512,-319.24773,-644.98471)"
                 id="g4320">
                <g
                   id="g4406"
                   transform="matrix(0.99644135,0.08373994,-0.08428895,0.98995113,-132.21905,92.942633)">
                  <rect
                     transform="matrix(0.99860063,0.05288469,-0.05288469,0.99860063,0,0)"
                     y="43.995117"
                     x="258.6886"
                     height="10.720265"
                     width="13.706625"
                     id="rect4381"
                     style="fill:#fd92fd;fill-opacity:1;stroke:#790092;stroke-width:0.60000002;stroke-miterlimit:4;stroke-dasharray:none;stroke-opacity:1" />
                  <rect
                     style="fill:url(#linearGradient4404);fill-opacity:1;stroke:#790092;stroke-width:0.60000002;stroke-miterlimit:4;stroke-dasharray:none;stroke-opacity:1"
                     id="rect4396"
                     width="13.706625"
                     height="10.720265"
                     x="258.6886"
                     y="43.995117"
                     transform="matrix(0.99860063,0.05288469,-0.05288469,0.99860063,0,0)" />
                </g>
                <path
                   style="fill:url(#linearGradient4376);fill-opacity:1;stroke:none"
                   d="m 117.69068,171.61791 -0.56303,4.0343 c 1.70023,0.84622 3.82564,1.52596 6.20527,1.89241 2.75439,0.42415 5.34796,0.35165 7.3782,-0.0966 l 0.55776,-3.97242 -13.5782,-1.85772 z"
                   id="rect4383"
                   inkscape:connector-curvature="0" />
                <g
                   transform="matrix(1,0,0,0.9934866,91.624347,128.9859)"
                   id="g4416">
                  <g
                     id="g4373"
                     transform="translate(-297.40486,-25.462144)">
                    <g
                       id="g4319">
                      <g
                         id="g4329">
                        <g
                           id="g4369">
                          <path
                             inkscape:connector-curvature="0"
                             id="path4323"
                             d="m 328.45152,9.6513878 0.30629,51.1509802 8.72936,1.225173 12.71117,-49.77266 z"
                             style="fill:#ca54c9;fill-opacity:1;stroke:#790092;stroke-width:0.80000001;stroke-linecap:butt;stroke-linejoin:miter;stroke-miterlimit:4;stroke-dasharray:none;stroke-opacity:1" />
                          <path
                             inkscape:connector-curvature="0"
                             id="path4257"
                             d="m 275.76908,-5.6158221 0.20708,48.2165711 5.90153,1.154887 8.59346,-46.9173214 z"
                             style="fill:#fd92fd;fill-opacity:1;stroke:none;filter:url(#filter4315-2)"
                             transform="matrix(0.76972882,0.04587816,-0.03571419,0.98878755,120.33593,4.9877803)" />
                        </g>
                      </g>
                      <path
                         inkscape:connector-curvature="0"
                         id="path4253"
                         d="m 328.4612,9.7900222 0.125,25.4687488 c 2.18618,0.204952 4.5002,0.35444 7.125,0.4375 3.19566,0.101125 6.03518,0.07538 8.5625,-0.0625 l 5.9375,-23.218749 -21.75,-2.6249998 z"
                         style="fill:url(#linearGradient4339);fill-opacity:1;stroke:none" />
                    </g>
                  </g>
                </g>
                <g
                   transform="matrix(1,0,0,0.9934866,-307.53899,-95.072834)"
                   id="g3716">
                  <g
                     transform="translate(94.812987,-568.99272)"
                     id="g3093">
                    <g
                       id="g3945"
                       transform="translate(322.59683,753.68677)">
                      <g
                         id="g3979"
                         transform="translate(10.714286,0)">
                        <g
                           id="g3781"
                           transform="translate(-14.890629,0.91529189)">
                          <g
                             id="g3423"
                             transform="translate(-11.071429,-2.8571429)">
                            <g
                               id="g3432">
                              <ellipse
                                 transform="matrix(1.0739856,0,0,1.0876623,-86.53617,2.3078647)"
                                 id="path2995"
                                 style="fill:#d010ff;fill-opacity:1;stroke:none"
                                 cx="49.922165"
                                 cy="58.91032"
                                 rx="45.373943"
                                 ry="33.353638" />
                              <ellipse
                                 transform="matrix(-1.0739856,0,0,1.0876623,21.267365,2.4124693)"
                                 id="path3777"
                                 style="fill:url(#linearGradient4525);fill-opacity:1;stroke:none"
                                 cx="49.922165"
                                 cy="58.91032"
                                 rx="45.373943"
                                 ry="33.353638" />
                              <ellipse
                                 style="fill:url(#linearGradient3734);fill-opacity:1;stroke:none"
                                 id="path3419"
                                 transform="matrix(1.0739856,0,0,1.0876623,-86.678292,2.4124686)"
                                 cx="49.922165"
                                 cy="58.91032"
                                 rx="45.373943"
                                 ry="33.353638" />
                            </g>
                          </g>
                        </g>
                        <ellipse
                           style="opacity:0.83628319;fill:#eeaaff;fill-opacity:1;stroke:none;filter:url(#filter3941-4-7-2)"
                           id="path3835"
                           transform="matrix(0.69923495,0,0,0.69923495,36.036198,-65.824604)"
                           cx="-134.71405"
                           cy="186.47716"
                           rx="39.417934"
                           ry="24.690355" />
                      </g>
                    </g>
                  </g>
                  <path
                     transform="matrix(1.1118465,0,0,0.99920459,470.32995,164.55026)"
                     style="fill:url(#linearGradient4249);fill-opacity:1;stroke:none;filter:url(#filter3843-2-2)"
                     d="m -59.461247,102.64527 c 0,-8.318304 -14.100248,-15.061624 -32.063707,-15.061624 -17.963456,0 -32.063706,6.74332 -32.063706,15.061624 0,8.31831 15.3939,15.79688 31.971303,15.89325 17.22396,0.10013 32.15611,-7.57494 32.15611,-15.89325 z"
                     id="path3799"
                     inkscape:connector-curvature="0"
                     sodipodi:nodetypes="sssss" />
                  <path
                     transform="translate(62.589107,-638.10512)"
                     sodipodi:nodetypes="sssss"
                     inkscape:connector-curvature="0"
                     id="path2997"
                     d="m 344.0876,870.3869 c 0,9.74862 -16.52475,17.65144 -37.57698,17.65144 -21.05225,0 -37.577,-7.90282 -37.577,-17.65144 0,-9.74862 18.04086,-18.51311 37.46871,-18.62605 20.18558,-0.11735 37.68527,8.87743 37.68527,18.62605 z"
                     style="fill:url(#linearGradient3740);fill-opacity:1;stroke:none" />
                  <g
                     id="g3966"
                     transform="translate(639.51751,90.539251)">
                    <g
                       id="g3829"
                       transform="matrix(0.68051034,0,0,0.51728162,-412.22484,164.42734)">
                      <path
                         inkscape:connector-curvature="0"
                         style="fill:#000000;stroke:none"
                         d="m 207.00609,-43.117398 c 0.18911,-2.483734 0.38767,-4.967468 0.57677,-7.451202 -14.54211,0 -29.09367,0 -43.63577,0 0,2.483734 0,4.967468 0,7.451202 4.32102,0.445555 8.65151,0.87215 12.98199,1.317706 8.17876,13.224459 16.70735,26.211923 24.8861,39.4363835 0,6.787608 0,13.5846965 0,20.3723105 -4.66141,0.44555 -9.33228,0.87215 -13.9937,1.3177 0,2.2657 0,4.53139 0,6.79709 14.38137,0 28.75328,0 43.13465,0 0,-2.2657 0,-4.53139 0,-6.79709 -4.68978,-0.21804 -9.37957,-0.43607 -14.06935,-0.65411 0.1702,-7.233166 0.34039,-14.4663305 0.51058,-21.6994935 7.88564,-9.3851015 16.05494,-18.5332055 23.95004,-27.9183065 4.15083,-0.455035 8.32058,-0.872151 12.47141,-1.327186 0,-2.957729 0,-5.905978 0,-8.863705 -12.14048,0.255956 -24.28096,0.492954 -36.42145,0.748911 0,2.483733 0,4.967467 0,7.451201 4.51959,0.227517 9.03918,0.436075 13.55877,0.663593 -5.82441,6.63593 -11.84738,13.082263 -17.67178,19.718193 -5.97569,-9.802218 -12.20667,-19.443276 -18.18236,-29.245491 3.97118,-0.445556 7.94237,-0.872151 11.9041,-1.317706"
                         id="path3049" />
                      <path
                         id="path3826"
                         d="m 205.73303,-43.954784 c 0.18911,-2.483734 0.38767,-4.967468 0.57677,-7.451202 -14.54211,0 -29.09367,0 -43.63577,0 0,2.483734 0,4.967468 0,7.451202 4.32102,0.445555 8.65151,0.87215 12.98199,1.317706 8.17876,13.224459 16.70735,26.211923 24.8861,39.4363835 0,6.787608 0,13.5846965 0,20.3723105 -4.66141,0.44555 -9.33228,0.87215 -13.9937,1.3177 0,2.2657 0,4.53139 0,6.79709 14.38137,0 28.75328,0 43.13465,0 0,-2.2657 0,-4.53139 0,-6.79709 -4.68978,-0.21804 -9.37957,-0.43607 -14.06935,-0.65411 0.1702,-7.233166 0.34039,-14.4663305 0.51058,-21.6994935 7.88564,-9.3851015 16.05494,-18.5332055 23.95004,-27.9183065 4.15083,-0.455035 8.32058,-0.872151 12.47141,-1.327186 0,-2.957729 0,-5.905978 0,-8.863705 -12.14048,0.255956 -24.28096,0.492954 -36.42145,0.748911 0,2.483733 0,4.967467 0,7.451201 4.51959,0.227517 9.03918,0.436075 13.55877,0.663593 -5.82441,6.63593 -11.84738,13.082263 -17.67178,19.718193 -5.97569,-9.802218 -12.20667,-19.443276 -18.18236,-29.245491 3.97118,-0.445556 7.94237,-0.872151 11.9041,-1.317706"
                         style="fill:#ffffff;stroke:none"
                         inkscape:connector-curvature="0" />
                    </g>
                  </g>
                </g>
                <g
                   id="g3165"
                   transform="matrix(0.11227585,0,0,0.10228703,133.69139,172.46131)"
                   style="fill:#ae3bbd;fill-opacity:1">
                  <text
                     id="text3167"
                     style="font-style:normal;font-weight:normal;font-size:13.91602039px;font-family:Calibri;text-align:start;text-anchor:start;fill:#ae3bbd;fill-opacity:1"
                     y="58.822525"
                     x="0.15126109"
                     xml:space="preserve" />
                  <path
                     id="path3169"
                     d="m 0.01890764,-0.04799488 c 10.77735236,0 21.54525136,0 32.32260436,0 0,3.68600678 0,7.38161258 0,11.06761988 -3.611359,0 -7.232171,0 -10.84353,0 0,11.259599 0,22.509599 0,33.759599 -3.545181,0 -7.090363,0 -10.635545,0 0,-11.25 0,-22.5 0,-33.759599 -3.6113585,0 -7.2321708,0 -10.84352936,0 0,-3.6860073 0,-7.3816131 0,-11.06761988"
                     style="fill:#ae3bbd;fill-opacity:1;fill-rule:evenodd;stroke:none"
                     inkscape:connector-curvature="0" />
                  <path
                     id="path3171"
                     d="m 37.040059,-0.04799488 c 4.651279,0 9.312011,0 13.96329,0 1.767864,9.09982938 3.63972,18.18046088 5.39813,27.28028988 1.75841,-9.099829 3.611359,-18.1804605 5.360315,-27.28028988 4.660732,0 9.321465,0 13.991651,0 0,14.94560588 0,29.88161288 0,44.82721888 -2.902322,0 -5.814098,0 -8.716421,0 0,-11.393985 0,-22.78797 0,-34.181954 -2.193285,11.403583 -4.518925,22.77837 -6.71221,34.181954 -2.628162,0 -5.256323,0 -7.884485,0 C 50.247043,33.37564 47.930858,22.000853 45.747026,10.59727 c 0,11.393984 0,22.787969 0,34.181954 -2.902322,0 -5.804644,0 -8.706967,0 0,-14.945606 0,-29.881613 0,-44.82721888"
                     style="fill:#ae3bbd;fill-opacity:1;fill-rule:evenodd;stroke:none"
                     inkscape:connector-curvature="0" />
                </g>
                <g
                   transform="matrix(1,0,0,0.9934866,0,0.813458)"
                   id="g4984">
                  <g
                     id="g4946">
                    <path
                       inkscape:connector-curvature="0"
                       id="path4099"
                       d="m 73.63873,173.24989 1.40778,14.14557 5.19797,8.66986 5.19797,4.33494 8.23012,2.05339 c 0,0 7.68866,-1.14078 8.12183,-1.14078 0.43316,0 7.79695,-3.19416 7.79695,-3.19416 l 4.11506,-5.81793 2.92386,-6.16017 c 0,0 1.73265,-6.61648 1.73265,-7.18686 0,-0.57039 -0.54145,-7.30094 -0.54145,-7.30094 z"
                       style="fill:#000000;fill-opacity:1;stroke:none" />
                    <path
                       transform="matrix(1.6716418,0,0,1.1712855,-261.21329,133.85763)"
                       style="opacity:0.90265491;fill:#ff0000;fill-opacity:1;stroke:none;filter:url(#filter4276)"
                       d="m 223.51269,51.005077 c 0.15341,4.001116 -4.41201,7.2555 -9.85449,7.2555 -5.44248,0 -10.00789,-3.254384 -9.85448,-7.2555 0.2115,-5.516355 4.2005,-10.575857 9.64298,-10.575857 5.44248,0 9.85449,5.059502 10.06599,10.575857 z"
                       id="path4117"
                       inkscape:connector-curvature="0"
                       sodipodi:nodetypes="sssss" />
                    <ellipse
                       style="opacity:0.90265491;fill:url(#linearGradient3063);fill-opacity:1;stroke:none;filter:url(#filter4187-2)"
                       id="path3055"
                       transform="matrix(1.6716418,0,0,1.76096,-261.56684,103.81698)"
                       cx="213.6582"
                       cy="51.005077"
                       rx="9.8544836"
                       ry="7.2554994" />
                    <path
                       id="path4046"
                       d="m 95.287472,150.09232 c -15.549945,0 -28.15625,12.40803 -28.15625,27.71875 0,15.31072 12.606305,27.75 28.15625,27.75 15.549948,0 28.156248,-12.43928 28.156248,-27.75 0,-15.31072 -12.6063,-27.71875 -28.156248,-27.71875 z m 20.374998,23.90625 c 0.29858,17.31561 -4.97186,26.65638 -19.062498,26.4375 -14.226993,0.10411 -21.788608,-7.11924 -21.3125,-26.3125 l 40.374998,-0.125 z"
                       style="fill:#f8da20;fill-opacity:1;stroke:none"
                       inkscape:connector-curvature="0" />
                    <path
                       style="fill:url(#radialGradient4391);fill-opacity:1;stroke:none"
                       d="m 95.412457,151.57901 c -15.393661,0 -27.875,12.08257 -27.875,26.96875 0,14.88618 12.481339,26.9375 27.875,26.9375 15.393663,0 27.875003,-12.05132 27.875003,-26.9375 0,-14.88618 -12.48134,-26.96875 -27.875003,-26.96875 z m -20.84375,22.96875 40.906253,0 c -1.33757,11.72174 -0.33802,25.24225 -18.843753,26.34375 -19.078986,0.083 -20.559257,-11.85478 -22.0625,-26.34375 z"
                       id="path3998"
                       inkscape:connector-curvature="0" />
                  </g>
                </g>
                <ellipse
                   style="opacity:0.5442478;fill:url(#linearGradient4208);fill-opacity:1;stroke:none;filter:url(#filter4187-2)"
                   id="path4200"
                   transform="matrix(0.93310752,0,0,1.161355,-104.13019,128.54545)"
                   cx="213.6582"
                   cy="51.005077"
                   rx="9.8544836"
                   ry="7.2554994" />
                <path
                   sodipodi:nodetypes="sssss"
                   inkscape:connector-curvature="0"
                   id="path4048"
                   d="m 115.25514,166.32056 c 0,8.90495 -8.92097,11.8519 -19.925553,11.8519 -11.00458,0 -19.92555,-2.94695 -19.92555,-11.8519 0,-8.90495 8.92097,-16.12384 19.92555,-16.12384 11.004583,0 19.925553,7.21889 19.925553,16.12384 z"
                   style="fill:url(#linearGradient4395);fill-opacity:1;stroke:none" />
                <rect
                   y="174.57872"
                   x="77.327454"
                   height="4.9772658"
                   width="36.755196"
                   id="rect4062"
                   style="fill:#6e8286;fill-opacity:1;stroke:none" />
                <rect
                   style="fill:url(#linearGradient4397);fill-opacity:1;stroke:none"
                   id="rect4064"
                   width="19.679344"
                   height="4.9772658"
                   x="77.327454"
                   y="174.50214" />
                <rect
                   transform="scale(-1,1)"
                   y="174.50214"
                   x="-114.08264"
                   height="4.9772658"
                   width="19.679344"
                   id="rect4086"
                   style="fill:url(#linearGradient4399);fill-opacity:1;stroke:none" />
                <ellipse
                   style="fill:#0000c3;fill-opacity:1;stroke:none"
                   id="path3069"
                   transform="translate(-119.49747,143.80289)"
                   cx="206.99831"
                   cy="22.145515"
                   rx="3.0321488"
                   ry="3.681895" />
                <ellipse
                   transform="translate(-119.49747,143.80289)"
                   id="path3839"
                   style="fill:url(#linearGradient4527);fill-opacity:1;stroke:none"
                   cx="206.99831"
                   cy="22.145515"
                   rx="3.0321488"
                   ry="3.681895" />
                <ellipse
                   transform="translate(-105.76481,143.80289)"
                   id="path3855"
                   style="fill:#0000c3;fill-opacity:1;stroke:none"
                   cx="206.99831"
                   cy="22.145515"
                   rx="3.0321488"
                   ry="3.681895" />
                <ellipse
                   style="fill:url(#linearGradient3859);fill-opacity:1;stroke:none"
                   id="path3857"
                   transform="translate(-105.76481,143.80289)"
                   cx="206.99831"
                   cy="22.145515"
                   rx="3.0321488"
                   ry="3.681895" />
                <rect
                   style="fill:#c6610a;fill-opacity:1;stroke:none"
                   id="rect4478"
                   width="40.469002"
                   height="2.4187303"
                   x="75.258102"
                   y="173.66573" />
                <path
                   style="fill:#c6610a;fill-opacity:1;stroke:none"
                   d="m 77.475744,175.93129 c -0.794195,15.58693 6.059156,23.40529 17.52661,23.68903 15.686476,-0.0473 19.717576,-8.35381 18.967896,-23.61245 l 1.74108,0.0766 c 0.80409,18.5326 -6.75559,24.61561 -21.258987,24.42689 -5.730672,-0.14534 -19.842493,-2.015 -19.194264,-24.65661 z"
                   id="path4480"
                   inkscape:connector-curvature="0"
                   sodipodi:nodetypes="ccccccc" />
                <path
                   sodipodi:nodetypes="ccccc"
                   inkscape:connector-curvature="0"
                   id="path3938"
                   d="m 78.383581,187.12694 c 2.029937,10.15102 9.904551,12.41662 17.675791,12.39933 13.276618,-0.009 15.970268,-7.00628 17.356358,-12.29332 -3.19689,8.31072 -6.99903,11.41068 -17.442222,11.41576 -7.869658,0.0428 -13.877343,-1.91489 -17.589927,-11.52177 z"
                   style="fill:#ffffff;stroke:none" />
              </g>
            </g>
          </g>
        </g>
      </g>
    </g>
  </g>
</svg>
